<?xml version="1.0" encoding="UTF-8" standalone="no"?>
<svg
   xmlns:dc="http://purl.org/dc/elements/1.1/"
   xmlns:cc="http://creativecommons.org/ns#"
   xmlns:rdf="http://www.w3.org/1999/02/22-rdf-syntax-ns#"
   xmlns:svg="http://www.w3.org/2000/svg"
   xmlns="http://www.w3.org/2000/svg"
   viewBox="0 0 633.33331 532"
   height="532"
   width="633.33331"
   xml:space="preserve"
   id="svg2"
   version="1.1"><metadata
     id="metadata8"><rdf:RDF><cc:Work
         rdf:about=""><dc:format>image/svg+xml</dc:format><dc:type
           rdf:resource="http://purl.org/dc/dcmitype/StillImage" /></cc:Work></rdf:RDF></metadata><defs
     id="defs6" /><g
     transform="matrix(1.3333333,0,0,-1.3333333,0,532)"
     id="g10"><g
       transform="scale(0.1)"
       id="g12"><path
         id="path14"
         style="fill:#ffffff;fill-opacity:1;fill-rule:nonzero;stroke:none"
         d="M 0,0 H 5220 V 4060 H 0 Z" /><path
         id="path16"
         style="fill:#ffffff;fill-opacity:1;fill-rule:nonzero;stroke:none"
         d="M 0,0 H 5220 V 4060 H 0 Z" /><path
         id="path18"
         style="fill:#ffffff;fill-opacity:1;fill-rule:nonzero;stroke:none"
         d="M 350,320 H 4690 V 3750 H 350 Z" /><path
         id="path20"
         style="fill:none;stroke:#262626;stroke-width:5;stroke-linecap:square;stroke-linejoin:round;stroke-miterlimit:10;stroke-dasharray:none;stroke-opacity:1"
         d="M 350,320 H 4690" /><path
         id="path22"
         style="fill:none;stroke:#262626;stroke-width:5;stroke-linecap:square;stroke-linejoin:round;stroke-miterlimit:10;stroke-dasharray:none;stroke-opacity:1"
         d="M 350,3750 H 4690" /><path
         id="path24"
         style="fill:none;stroke:#262626;stroke-width:5;stroke-linecap:square;stroke-linejoin:round;stroke-miterlimit:10;stroke-dasharray:none;stroke-opacity:1"
         d="m 350,320 v 43.398" /><path
         id="path26"
         style="fill:none;stroke:#262626;stroke-width:5;stroke-linecap:square;stroke-linejoin:round;stroke-miterlimit:10;stroke-dasharray:none;stroke-opacity:1"
         d="m 970,320 v 43.398" /><path
         id="path28"
         style="fill:none;stroke:#262626;stroke-width:5;stroke-linecap:square;stroke-linejoin:round;stroke-miterlimit:10;stroke-dasharray:none;stroke-opacity:1"
         d="m 1590,320 v 43.398" /><path
         id="path30"
         style="fill:none;stroke:#262626;stroke-width:5;stroke-linecap:square;stroke-linejoin:round;stroke-miterlimit:10;stroke-dasharray:none;stroke-opacity:1"
         d="m 2210,320 v 43.398" /><path
         id="path32"
         style="fill:none;stroke:#262626;stroke-width:5;stroke-linecap:square;stroke-linejoin:round;stroke-miterlimit:10;stroke-dasharray:none;stroke-opacity:1"
         d="m 2830,320 v 43.398" /><path
         id="path34"
         style="fill:none;stroke:#262626;stroke-width:5;stroke-linecap:square;stroke-linejoin:round;stroke-miterlimit:10;stroke-dasharray:none;stroke-opacity:1"
         d="m 3450,320 v 43.398" /><path
         id="path36"
         style="fill:none;stroke:#262626;stroke-width:5;stroke-linecap:square;stroke-linejoin:round;stroke-miterlimit:10;stroke-dasharray:none;stroke-opacity:1"
         d="m 4070,320 v 43.398" /><path
         id="path38"
         style="fill:none;stroke:#262626;stroke-width:5;stroke-linecap:square;stroke-linejoin:round;stroke-miterlimit:10;stroke-dasharray:none;stroke-opacity:1"
         d="m 4690,320 v 43.398" /><path
         id="path40"
         style="fill:none;stroke:#262626;stroke-width:5;stroke-linecap:square;stroke-linejoin:round;stroke-miterlimit:10;stroke-dasharray:none;stroke-opacity:1"
         d="m 350,3750 v -43.4" /><path
         id="path42"
         style="fill:none;stroke:#262626;stroke-width:5;stroke-linecap:square;stroke-linejoin:round;stroke-miterlimit:10;stroke-dasharray:none;stroke-opacity:1"
         d="m 970,3750 v -43.4" /><path
         id="path44"
         style="fill:none;stroke:#262626;stroke-width:5;stroke-linecap:square;stroke-linejoin:round;stroke-miterlimit:10;stroke-dasharray:none;stroke-opacity:1"
         d="m 1590,3750 v -43.4" /><path
         id="path46"
         style="fill:none;stroke:#262626;stroke-width:5;stroke-linecap:square;stroke-linejoin:round;stroke-miterlimit:10;stroke-dasharray:none;stroke-opacity:1"
         d="m 2210,3750 v -43.4" /><path
         id="path48"
         style="fill:none;stroke:#262626;stroke-width:5;stroke-linecap:square;stroke-linejoin:round;stroke-miterlimit:10;stroke-dasharray:none;stroke-opacity:1"
         d="m 2830,3750 v -43.4" /><path
         id="path50"
         style="fill:none;stroke:#262626;stroke-width:5;stroke-linecap:square;stroke-linejoin:round;stroke-miterlimit:10;stroke-dasharray:none;stroke-opacity:1"
         d="m 3450,3750 v -43.4" /><path
         id="path52"
         style="fill:none;stroke:#262626;stroke-width:5;stroke-linecap:square;stroke-linejoin:round;stroke-miterlimit:10;stroke-dasharray:none;stroke-opacity:1"
         d="m 4070,3750 v -43.4" /><path
         id="path54"
         style="fill:none;stroke:#262626;stroke-width:5;stroke-linecap:square;stroke-linejoin:round;stroke-miterlimit:10;stroke-dasharray:none;stroke-opacity:1"
         d="m 4690,3750 v -43.4" /><g
         transform="scale(10)"
         id="g56"><text
           id="text60"
           style="font-variant:normal;font-weight:normal;font-size:10px;font-family:Helvetica;-inkscape-font-specification:Helvetica;writing-mode:lr-tb;fill:#262626;fill-opacity:1;fill-rule:nonzero;stroke:none"
           transform="matrix(1,0,0,-1,31.5,18)"><tspan
             id="tspan58"
             y="0"
             x="0 59 64.559998 121 126.56 183 188.56 245 250.56 307 312.56 369 374.56 431 436.56">010203040506070</tspan></text>
<text
           id="text64"
           style="font-variant:normal;font-weight:normal;font-size:14px;font-family:Helvetica;-inkscape-font-specification:Helvetica;writing-mode:lr-tb;fill:#262626;fill-opacity:1;fill-rule:nonzero;stroke:none"
           transform="matrix(1,0,0,-1,193.5,1)"><tspan
             id="tspan62"
             y="0"
             x="0 10.108 17.892 29.554001 37.338001 45.122002 49.784 53.675999 61.459999 65.351997 69.244003 76.244003 84.028 88.690002 96.473999">Number of cores</tspan></text>
</g><path
         id="path66"
         style="fill:none;stroke:#262626;stroke-width:5;stroke-linecap:square;stroke-linejoin:round;stroke-miterlimit:10;stroke-dasharray:none;stroke-opacity:1"
         d="M 350,320 V 3750" /><path
         id="path68"
         style="fill:none;stroke:#262626;stroke-width:5;stroke-linecap:square;stroke-linejoin:round;stroke-miterlimit:10;stroke-dasharray:none;stroke-opacity:1"
         d="M 4690,320 V 3750" /><path
         id="path70"
         style="fill:none;stroke:#262626;stroke-width:5;stroke-linecap:square;stroke-linejoin:round;stroke-miterlimit:10;stroke-dasharray:none;stroke-opacity:1"
         d="m 350,320 h 43.398" /><path
         id="path72"
         style="fill:none;stroke:#262626;stroke-width:5;stroke-linecap:square;stroke-linejoin:round;stroke-miterlimit:10;stroke-dasharray:none;stroke-opacity:1"
         d="m 350,810 h 43.398" /><path
         id="path74"
         style="fill:none;stroke:#262626;stroke-width:5;stroke-linecap:square;stroke-linejoin:round;stroke-miterlimit:10;stroke-dasharray:none;stroke-opacity:1"
         d="m 350,1300 h 43.398" /><path
         id="path76"
         style="fill:none;stroke:#262626;stroke-width:5;stroke-linecap:square;stroke-linejoin:round;stroke-miterlimit:10;stroke-dasharray:none;stroke-opacity:1"
         d="m 350,1790 h 43.398" /><path
         id="path78"
         style="fill:none;stroke:#262626;stroke-width:5;stroke-linecap:square;stroke-linejoin:round;stroke-miterlimit:10;stroke-dasharray:none;stroke-opacity:1"
         d="m 350,2280 h 43.398" /><path
         id="path80"
         style="fill:none;stroke:#262626;stroke-width:5;stroke-linecap:square;stroke-linejoin:round;stroke-miterlimit:10;stroke-dasharray:none;stroke-opacity:1"
         d="m 350,2770 h 43.398" /><path
         id="path82"
         style="fill:none;stroke:#262626;stroke-width:5;stroke-linecap:square;stroke-linejoin:round;stroke-miterlimit:10;stroke-dasharray:none;stroke-opacity:1"
         d="m 350,3260 h 43.398" /><path
         id="path84"
         style="fill:none;stroke:#262626;stroke-width:5;stroke-linecap:square;stroke-linejoin:round;stroke-miterlimit:10;stroke-dasharray:none;stroke-opacity:1"
         d="m 350,3750 h 43.398" /><path
         id="path86"
         style="fill:none;stroke:#262626;stroke-width:5;stroke-linecap:square;stroke-linejoin:round;stroke-miterlimit:10;stroke-dasharray:none;stroke-opacity:1"
         d="m 4690,320 h -43.4" /><path
         id="path88"
         style="fill:none;stroke:#262626;stroke-width:5;stroke-linecap:square;stroke-linejoin:round;stroke-miterlimit:10;stroke-dasharray:none;stroke-opacity:1"
         d="m 4690,810 h -43.4" /><path
         id="path90"
         style="fill:none;stroke:#262626;stroke-width:5;stroke-linecap:square;stroke-linejoin:round;stroke-miterlimit:10;stroke-dasharray:none;stroke-opacity:1"
         d="m 4690,1300 h -43.4" /><path
         id="path92"
         style="fill:none;stroke:#262626;stroke-width:5;stroke-linecap:square;stroke-linejoin:round;stroke-miterlimit:10;stroke-dasharray:none;stroke-opacity:1"
         d="m 4690,1790 h -43.4" /><path
         id="path94"
         style="fill:none;stroke:#262626;stroke-width:5;stroke-linecap:square;stroke-linejoin:round;stroke-miterlimit:10;stroke-dasharray:none;stroke-opacity:1"
         d="m 4690,2280 h -43.4" /><path
         id="path96"
         style="fill:none;stroke:#262626;stroke-width:5;stroke-linecap:square;stroke-linejoin:round;stroke-miterlimit:10;stroke-dasharray:none;stroke-opacity:1"
         d="m 4690,2770 h -43.4" /><path
         id="path98"
         style="fill:none;stroke:#262626;stroke-width:5;stroke-linecap:square;stroke-linejoin:round;stroke-miterlimit:10;stroke-dasharray:none;stroke-opacity:1"
         d="m 4690,3260 h -43.4" /><path
         id="path100"
         style="fill:none;stroke:#262626;stroke-width:5;stroke-linecap:square;stroke-linejoin:round;stroke-miterlimit:10;stroke-dasharray:none;stroke-opacity:1"
         d="m 4690,3750 h -43.4" /><g
         transform="scale(10)"
         id="g102"><text
           id="text120"
           style="font-variant:normal;font-weight:normal;font-size:10px;font-family:Helvetica;-inkscape-font-specification:Helvetica;writing-mode:lr-tb;fill:#262626;fill-opacity:1;fill-rule:nonzero;stroke:none"
           transform="matrix(1,0,0,-1,24,28.5)"><tspan
             id="tspan104"
             y="0"
             x="0">0</tspan><tspan
             id="tspan106"
             y="-49"
             x="-6 -0.44">10</tspan><tspan
             id="tspan108"
             y="-98"
             x="-6 -0.44">20</tspan><tspan
             id="tspan110"
             y="-147"
             x="-6 -0.44">30</tspan><tspan
             id="tspan112"
             y="-196"
             x="-6 -0.44">40</tspan><tspan
             id="tspan114"
             y="-245"
             x="-6 -0.44">50</tspan><tspan
             id="tspan116"
             y="-294"
             x="-6 -0.44">60</tspan><tspan
             id="tspan118"
             y="-343"
             x="-6 -0.44">70</tspan></text>
<text
           id="text124"
           style="font-variant:normal;font-weight:normal;font-size:14px;font-family:Helvetica;-inkscape-font-specification:Helvetica;writing-mode:lr-tb;fill:#262626;fill-opacity:1;fill-rule:nonzero;stroke:none"
           transform="matrix(0,1,1,0,11,144.5)"><tspan
             id="tspan122"
             y="0"
             x="0 9.3380003 17.122 21.784 29.568001 32.675999 35.784 43.568001 46.675999 50.568001 59.905998 67.690002 75.473999 83.258003 91.042 98.825996">Parallel Speedup</tspan></text>
</g><g
         transform="scale(10)"
         id="g126"><text
           id="text130"
           style="font-variant:normal;font-weight:bold;font-size:18px;font-family:Helvetica;-inkscape-font-specification:Helvetica-Bold;writing-mode:lr-tb;fill:#000000;fill-opacity:1;fill-rule:nonzero;stroke:none"
           transform="matrix(1,0,0,-1,182,384.5)"><tspan
             id="tspan128"
             y="0"
             x="0 12.996 28.997999 39.995998 50.004002 61.001999 66.005997 70.290001 80.297997 85.302002 96.300003 106.308">Amdahl's Law</tspan></text>
</g><path
         id="path132"
         style="fill:none;stroke:#0072bd;stroke-width:20;stroke-linecap:butt;stroke-linejoin:round;stroke-miterlimit:10;stroke-dasharray:none;stroke-opacity:1"
         d="m 412,369 62,49 62,49 62,49 62,49 62,49 62,49 62,49 62,49 62,49 62,49 62,49 62,49 62,49 62,49 62,49 62,49 62,49 62,49 62,49 62,49 62,49 62,49 62,49 62,49 62,49 62,49 62,49 62,49 62,49 62,49 62,49 62,49 62,49 62,49 62,49 62,49 62,49 62,49 62,49 62,49 62,49 62,49 62,49 62,49 62,49 62,49 62,49 62,49 62,49 62,49 62,49 62,49 62,49 62,49 62,49 62,49 62,49 62,49 62,49 62,49 62,49 62,49 62,49" /><path
         id="path134"
         style="fill:none;stroke:#d95319;stroke-width:20;stroke-linecap:butt;stroke-linejoin:round;stroke-miterlimit:10;stroke-dasharray:none;stroke-opacity:1"
         d="m 412,369 62,44.332 62,40.309 62,36.789 62,33.742 62,31.027 62,28.653 62,26.519 62,24.629 62,22.93 62,21.402 62,20.02 62,18.769 62,17.641 62,16.59 62,15.648 62,14.781 62,13.981 62,13.238 62,12.559 62,11.941 62,11.352 62,10.82 62,10.308 62,9.84 62,9.399 62,9 62,8.613 62,8.25 62,7.918 62,7.602 62,7.296 62,7.024 62,6.758 62,6.511 62,6.258 62,6.051 62,5.832 62,5.637 62,5.441 62,5.262 62,5.078 62,4.93 62,4.76 62,4.62 62,4.48 62,4.34 62,4.21 62,4.09 62,3.96 62,3.86 62,3.75 62,3.64 62,3.54 62,3.45 62,3.35 62,3.27 62,3.18 62,3.1 62,3.02 62,2.95 62,2.87 62,2.81 62,2.73" /><path
         id="path136"
         style="fill:none;stroke:#edb120;stroke-width:20;stroke-linecap:butt;stroke-linejoin:round;stroke-miterlimit:10;stroke-dasharray:none;stroke-opacity:1"
         d="m 412,369 62,40.09 62,33.41 62,28.27 62,24.23 62,21 62,18.371 62,16.219 62,14.41 62,12.891 62,11.609 62,10.5 62,9.551 62,8.711 62,7.988 62,7.352 62,6.777 62,6.293 62,5.828 62,5.43 62,5.07 62,4.738 62,4.453 62,4.168 62,3.93 62,3.711 62,3.5 62,3.309 62,3.14 62,2.973 62,2.828 62,2.691 62,2.559 62,2.441 62,2.329 62,2.23 62,2.129 62,2.043 62,1.949 62,1.879 62,1.801 62,1.73 62,1.66 62,1.598 62,1.543 62,1.488 62,1.43 62,1.379 62,1.34 62,1.281 62,1.25 62,1.211 62,1.16 62,1.129 62,1.09 62,1.058 62,1.032 62,1 62,0.968 62,0.942 62,0.91 62,0.891 62,0.859 62,0.84" /><path
         id="path138"
         style="fill:none;stroke:#7e2f8e;stroke-width:20;stroke-linecap:butt;stroke-linejoin:round;stroke-miterlimit:10;stroke-dasharray:none;stroke-opacity:1"
         d="m 412,369 62,32.672 62,23.328 62,17.5 62,13.609 62,10.891 62,8.91 62,7.422 62,6.289 62,5.379 62,4.672 62,4.078 62,3.602 62,3.207 62,2.863 62,2.578 62,2.332 62,2.117 62,1.942 62,1.781 62,1.629 62,1.508 62,1.39 62,1.301 62,1.211 62,1.121 62,1.059 62,0.98 62,0.93 62,0.879 62,0.82 62,0.781 62,0.731 62,0.699 62,0.66 62,0.629 62,0.602 62,0.57 62,0.539 62,0.519 62,0.489 62,0.48 62,0.449 62,0.434 62,0.418 62,0.398 62,0.383 62,0.367 62,0.364 62,0.34 62,0.328 62,0.32 62,0.309 62,0.293 62,0.289 62,0.281 62,0.258 62,0.261 62,0.25 62,0.25 62,0.231 62,0.226 62,0.223 62,0.219" /><path
         id="path140"
         style="fill:none;stroke:#77ac30;stroke-width:20;stroke-linecap:butt;stroke-linejoin:round;stroke-miterlimit:10;stroke-dasharray:none;stroke-opacity:1"
         d="m 412,369 62,29.398 62,19.602 62,14 62,10.5 62,8.172 62,6.527 62,5.352 62,4.449 62,3.77 62,3.23 62,2.801 62,2.449 62,2.16 62,1.922 62,1.719 62,1.551 62,1.398 62,1.27 62,1.16 62,1.07 62,0.98 62,0.899 62,0.84 62,0.781 62,0.719 62,0.679 62,0.633 62,0.598 62,0.551 62,0.531 62,0.488 62,0.473 62,0.437 62,0.422 62,0.391 62,0.379 62,0.359 62,0.34 62,0.332 62,0.309 62,0.289 62,0.289 62,0.269 62,0.262 62,0.25 62,0.242 62,0.227 62,0.222 62,0.219 62,0.199 62,0.2 62,0.191 62,0.18 62,0.179 62,0.172 62,0.168 62,0.16 62,0.161 62,0.152 62,0.137 62,0.14 62,0.141 62,0.129" /><path
         id="path142"
         style="fill:none;stroke:#4dbeee;stroke-width:20;stroke-linecap:butt;stroke-linejoin:round;stroke-miterlimit:10;stroke-dasharray:none;stroke-opacity:1"
         d="m 412,369 62,7 62,2.801 62,1.508 62,0.941 62,0.641 62,0.468 62,0.36 62,0.281 62,0.23 62,0.18 62,0.16 62,0.129 62,0.11 62,0.101 62,0.09 62,0.078 62,0.07 62,0.063 62,0.051 62,0.047 62,0.05 62,0.039 62,0.043 62,0.028 62,0.043 62,0.027 62,0.02 62,0.031 62,0.031 62,0.02 62,0.019 62,0.02 62,0.019 62,0.02 62,0.011 62,0.02 62,0.02 62,0.011 62,0.008 62,0.02 62,0.011 62,0.012 62,0.008 62,0.012 62,0.007 62,0.012 62,0.008 62,0.012 62,0.007 62,0.012 62,0.012 h 62 l 62,0.008 62,0.011 62,0.008 h 62 l 62,0.012 62,0.008 h 62 l 62,0.011 h 62 l 62,0.008 h 62" /><path
         id="path144"
         style="fill:#ffffff;fill-opacity:1;fill-rule:nonzero;stroke:none"
         d="m 450,2690 h 1240 v 960 H 450 Z" /><g
         transform="scale(10)"
         id="g146"><text
           id="text150"
           style="font-variant:normal;font-weight:normal;font-size:12px;font-family:Helvetica;-inkscape-font-specification:Helvetica;writing-mode:lr-tb;fill:#000000;fill-opacity:1;fill-rule:nonzero;stroke:none"
           transform="matrix(1,0,0,-1,82,351.049)"><tspan
             id="tspan148"
             y="0"
             x="0 6.6719999 13.344 20.016001 30.684 34.02 40.692001 47.363998 51.360001 58.032001 60.695999 63.360001 70.031998">100% parallel</tspan></text>
</g><path
         id="path152"
         style="fill:none;stroke:#0072bd;stroke-width:20;stroke-linecap:butt;stroke-linejoin:round;stroke-miterlimit:10;stroke-dasharray:none;stroke-opacity:1"
         d="M 490,3555.49 H 790" /><g
         transform="scale(10)"
         id="g154"><text
           id="text158"
           style="font-variant:normal;font-weight:normal;font-size:12px;font-family:Helvetica;-inkscape-font-specification:Helvetica;writing-mode:lr-tb;fill:#000000;fill-opacity:1;fill-rule:nonzero;stroke:none"
           transform="matrix(1,0,0,-1,82,335.63)"><tspan
             id="tspan156"
             y="0"
             x="0 6.6719999 13.344 24.011999 27.348 34.02 40.692001 44.688 51.360001 54.023998 56.688 63.360001">95% parallel</tspan></text>
</g><path
         id="path160"
         style="fill:none;stroke:#d95319;stroke-width:20;stroke-linecap:butt;stroke-linejoin:round;stroke-miterlimit:10;stroke-dasharray:none;stroke-opacity:1"
         d="M 490,3401.3 H 790" /><g
         transform="scale(10)"
         id="g162"><text
           id="text166"
           style="font-variant:normal;font-weight:normal;font-size:12px;font-family:Helvetica;-inkscape-font-specification:Helvetica;writing-mode:lr-tb;fill:#000000;fill-opacity:1;fill-rule:nonzero;stroke:none"
           transform="matrix(1,0,0,-1,82,320.21)"><tspan
             id="tspan164"
             y="0"
             x="0 6.6719999 13.344 24.011999 27.348 34.02 40.692001 44.688 51.360001 54.023998 56.688 63.360001">90% parallel</tspan></text>
</g><path
         id="path168"
         style="fill:none;stroke:#edb120;stroke-width:20;stroke-linecap:butt;stroke-linejoin:round;stroke-miterlimit:10;stroke-dasharray:none;stroke-opacity:1"
         d="M 490,3247.1 H 790" /><g
         transform="scale(10)"
         id="g170"><text
           id="text174"
           style="font-variant:normal;font-weight:normal;font-size:12px;font-family:Helvetica;-inkscape-font-specification:Helvetica;writing-mode:lr-tb;fill:#000000;fill-opacity:1;fill-rule:nonzero;stroke:none"
           transform="matrix(1,0,0,-1,82,304.79)"><tspan
             id="tspan172"
             y="0"
             x="0 6.6719999 13.344 24.011999 27.348 34.02 40.692001 44.688 51.360001 54.023998 56.688 63.360001">80% parallel</tspan></text>
</g><path
         id="path176"
         style="fill:none;stroke:#7e2f8e;stroke-width:20;stroke-linecap:butt;stroke-linejoin:round;stroke-miterlimit:10;stroke-dasharray:none;stroke-opacity:1"
         d="M 490,3092.9 H 790" /><g
         transform="scale(10)"
         id="g178"><text
           id="text182"
           style="font-variant:normal;font-weight:normal;font-size:12px;font-family:Helvetica;-inkscape-font-specification:Helvetica;writing-mode:lr-tb;fill:#000000;fill-opacity:1;fill-rule:nonzero;stroke:none"
           transform="matrix(1,0,0,-1,82,289.37)"><tspan
             id="tspan180"
             y="0"
             x="0 6.6719999 13.344 24.011999 27.348 34.02 40.692001 44.688 51.360001 54.023998 56.688 63.360001">75% parallel</tspan></text>
</g><path
         id="path184"
         style="fill:none;stroke:#77ac30;stroke-width:20;stroke-linecap:butt;stroke-linejoin:round;stroke-miterlimit:10;stroke-dasharray:none;stroke-opacity:1"
         d="M 490,2938.7 H 790" /><g
         transform="scale(10)"
         id="g186"><text
           id="text190"
           style="font-variant:normal;font-weight:normal;font-size:12px;font-family:Helvetica;-inkscape-font-specification:Helvetica;writing-mode:lr-tb;fill:#000000;fill-opacity:1;fill-rule:nonzero;stroke:none"
           transform="matrix(1,0,0,-1,82,273.951)"><tspan
             id="tspan188"
             y="0"
             x="0 6.6719999 13.344 24.011999 27.348 34.02 40.692001 44.688 51.360001 54.023998 56.688 63.360001">25% parallel</tspan></text>
</g><path
         id="path192"
         style="fill:none;stroke:#4dbeee;stroke-width:20;stroke-linecap:butt;stroke-linejoin:round;stroke-miterlimit:10;stroke-dasharray:none;stroke-opacity:1"
         d="M 490,2784.51 H 790" /><path
         id="path194"
         style="fill:none;stroke:#262626;stroke-width:5;stroke-linecap:butt;stroke-linejoin:miter;stroke-miterlimit:10;stroke-dasharray:none;stroke-opacity:1"
         d="m 450,2690 h 1240 v 960 H 450 Z" /></g></g></svg>