<?xml version="1.0" encoding="UTF-8" standalone="no"?>
<svg
   xmlns:dc="http://purl.org/dc/elements/1.1/"
   xmlns:cc="http://creativecommons.org/ns#"
   xmlns:rdf="http://www.w3.org/1999/02/22-rdf-syntax-ns#"
   xmlns:svg="http://www.w3.org/2000/svg"
   xmlns="http://www.w3.org/2000/svg"
   viewBox="0 0 640 532"
   height="532"
   width="640"
   xml:space="preserve"
   id="svg2"
   version="1.1"><metadata
     id="metadata8"><rdf:RDF><cc:Work
         rdf:about=""><dc:format>image/svg+xml</dc:format><dc:type
           rdf:resource="http://purl.org/dc/dcmitype/StillImage" /></cc:Work></rdf:RDF></metadata><defs
     id="defs6" /><g
     transform="matrix(1.3333333,0,0,-1.3333333,0,532)"
     id="g10"><g
       transform="scale(0.1)"
       id="g12"><path
         id="path14"
         style="fill:#ffffff;fill-opacity:1;fill-rule:nonzero;stroke:none"
         d="M 0,0 H 5250 V 4060 H 0 Z" /><path
         id="path16"
         style="fill:#ffffff;fill-opacity:1;fill-rule:nonzero;stroke:none"
         d="M 0,0 H 5250 V 4060 H 0 Z" /><path
         id="path18"
         style="fill:#ffffff;fill-opacity:1;fill-rule:nonzero;stroke:none"
         d="M 380,320 H 4720 V 3750 H 380 Z" /><path
         id="path20"
         style="fill:none;stroke:#262626;stroke-width:5;stroke-linecap:square;stroke-linejoin:round;stroke-miterlimit:10;stroke-dasharray:none;stroke-opacity:1"
         d="M 380,320 H 4720" /><path
         id="path22"
         style="fill:none;stroke:#262626;stroke-width:5;stroke-linecap:square;stroke-linejoin:round;stroke-miterlimit:10;stroke-dasharray:none;stroke-opacity:1"
         d="M 380,3750 H 4720" /><path
         id="path24"
         style="fill:none;stroke:#262626;stroke-width:5;stroke-linecap:square;stroke-linejoin:round;stroke-miterlimit:10;stroke-dasharray:none;stroke-opacity:1"
         d="m 380,320 v 43.398" /><path
         id="path26"
         style="fill:none;stroke:#262626;stroke-width:5;stroke-linecap:square;stroke-linejoin:round;stroke-miterlimit:10;stroke-dasharray:none;stroke-opacity:1"
         d="m 814,320 v 43.398" /><path
         id="path28"
         style="fill:none;stroke:#262626;stroke-width:5;stroke-linecap:square;stroke-linejoin:round;stroke-miterlimit:10;stroke-dasharray:none;stroke-opacity:1"
         d="m 1248,320 v 43.398" /><path
         id="path30"
         style="fill:none;stroke:#262626;stroke-width:5;stroke-linecap:square;stroke-linejoin:round;stroke-miterlimit:10;stroke-dasharray:none;stroke-opacity:1"
         d="m 1682,320 v 43.398" /><path
         id="path32"
         style="fill:none;stroke:#262626;stroke-width:5;stroke-linecap:square;stroke-linejoin:round;stroke-miterlimit:10;stroke-dasharray:none;stroke-opacity:1"
         d="m 2116,320 v 43.398" /><path
         id="path34"
         style="fill:none;stroke:#262626;stroke-width:5;stroke-linecap:square;stroke-linejoin:round;stroke-miterlimit:10;stroke-dasharray:none;stroke-opacity:1"
         d="m 2550,320 v 43.398" /><path
         id="path36"
         style="fill:none;stroke:#262626;stroke-width:5;stroke-linecap:square;stroke-linejoin:round;stroke-miterlimit:10;stroke-dasharray:none;stroke-opacity:1"
         d="m 2984,320 v 43.398" /><path
         id="path38"
         style="fill:none;stroke:#262626;stroke-width:5;stroke-linecap:square;stroke-linejoin:round;stroke-miterlimit:10;stroke-dasharray:none;stroke-opacity:1"
         d="m 3418,320 v 43.398" /><path
         id="path40"
         style="fill:none;stroke:#262626;stroke-width:5;stroke-linecap:square;stroke-linejoin:round;stroke-miterlimit:10;stroke-dasharray:none;stroke-opacity:1"
         d="m 3852,320 v 43.398" /><path
         id="path42"
         style="fill:none;stroke:#262626;stroke-width:5;stroke-linecap:square;stroke-linejoin:round;stroke-miterlimit:10;stroke-dasharray:none;stroke-opacity:1"
         d="m 4286,320 v 43.398" /><path
         id="path44"
         style="fill:none;stroke:#262626;stroke-width:5;stroke-linecap:square;stroke-linejoin:round;stroke-miterlimit:10;stroke-dasharray:none;stroke-opacity:1"
         d="m 4720,320 v 43.398" /><path
         id="path46"
         style="fill:none;stroke:#262626;stroke-width:5;stroke-linecap:square;stroke-linejoin:round;stroke-miterlimit:10;stroke-dasharray:none;stroke-opacity:1"
         d="m 380,3750 v -43.4" /><path
         id="path48"
         style="fill:none;stroke:#262626;stroke-width:5;stroke-linecap:square;stroke-linejoin:round;stroke-miterlimit:10;stroke-dasharray:none;stroke-opacity:1"
         d="m 814,3750 v -43.4" /><path
         id="path50"
         style="fill:none;stroke:#262626;stroke-width:5;stroke-linecap:square;stroke-linejoin:round;stroke-miterlimit:10;stroke-dasharray:none;stroke-opacity:1"
         d="m 1248,3750 v -43.4" /><path
         id="path52"
         style="fill:none;stroke:#262626;stroke-width:5;stroke-linecap:square;stroke-linejoin:round;stroke-miterlimit:10;stroke-dasharray:none;stroke-opacity:1"
         d="m 1682,3750 v -43.4" /><path
         id="path54"
         style="fill:none;stroke:#262626;stroke-width:5;stroke-linecap:square;stroke-linejoin:round;stroke-miterlimit:10;stroke-dasharray:none;stroke-opacity:1"
         d="m 2116,3750 v -43.4" /><path
         id="path56"
         style="fill:none;stroke:#262626;stroke-width:5;stroke-linecap:square;stroke-linejoin:round;stroke-miterlimit:10;stroke-dasharray:none;stroke-opacity:1"
         d="m 2550,3750 v -43.4" /><path
         id="path58"
         style="fill:none;stroke:#262626;stroke-width:5;stroke-linecap:square;stroke-linejoin:round;stroke-miterlimit:10;stroke-dasharray:none;stroke-opacity:1"
         d="m 2984,3750 v -43.4" /><path
         id="path60"
         style="fill:none;stroke:#262626;stroke-width:5;stroke-linecap:square;stroke-linejoin:round;stroke-miterlimit:10;stroke-dasharray:none;stroke-opacity:1"
         d="m 3418,3750 v -43.4" /><path
         id="path62"
         style="fill:none;stroke:#262626;stroke-width:5;stroke-linecap:square;stroke-linejoin:round;stroke-miterlimit:10;stroke-dasharray:none;stroke-opacity:1"
         d="m 3852,3750 v -43.4" /><path
         id="path64"
         style="fill:none;stroke:#262626;stroke-width:5;stroke-linecap:square;stroke-linejoin:round;stroke-miterlimit:10;stroke-dasharray:none;stroke-opacity:1"
         d="m 4286,3750 v -43.4" /><path
         id="path66"
         style="fill:none;stroke:#262626;stroke-width:5;stroke-linecap:square;stroke-linejoin:round;stroke-miterlimit:10;stroke-dasharray:none;stroke-opacity:1"
         d="m 4720,3750 v -43.4" /><g
         transform="scale(10)"
         id="g68"><text
           id="text72"
           style="font-variant:normal;font-weight:normal;font-size:10px;font-family:Helvetica;-inkscape-font-specification:Helvetica;writing-mode:lr-tb;fill:#262626;fill-opacity:1;fill-rule:nonzero;stroke:none"
           transform="matrix(1,0,0,-1,34.5,18)"><tspan
             id="tspan70"
             y="0"
             x="0 40.400002 45.959999 83.800003 89.360001 127.2 132.75999 170.60001 176.16 214 219.56 257.39999 262.95999 300.79999 306.35999 344.20001 349.76001 387.60001 393.16 427.5 433.06 438.62">0102030405060708090100</tspan></text>
<text
           id="text76"
           style="font-variant:normal;font-weight:normal;font-size:14px;font-family:Helvetica;-inkscape-font-specification:Helvetica;writing-mode:lr-tb;fill:#262626;fill-opacity:1;fill-rule:nonzero;stroke:none"
           transform="matrix(1,0,0,-1,196.5,1)"><tspan
             id="tspan74"
             y="0"
             x="0 10.108 17.892 29.554001 37.338001 45.122002 49.784 53.675999 61.459999 65.351997 69.244003 76.244003 84.028 88.690002 96.473999">Number of cores</tspan></text>
</g><path
         id="path78"
         style="fill:none;stroke:#262626;stroke-width:5;stroke-linecap:square;stroke-linejoin:round;stroke-miterlimit:10;stroke-dasharray:none;stroke-opacity:1"
         d="M 380,320 V 3750" /><path
         id="path80"
         style="fill:none;stroke:#262626;stroke-width:5;stroke-linecap:square;stroke-linejoin:round;stroke-miterlimit:10;stroke-dasharray:none;stroke-opacity:1"
         d="M 4720,320 V 3750" /><path
         id="path82"
         style="fill:none;stroke:#262626;stroke-width:5;stroke-linecap:square;stroke-linejoin:round;stroke-miterlimit:10;stroke-dasharray:none;stroke-opacity:1"
         d="m 380,320 h 43.398" /><path
         id="path84"
         style="fill:none;stroke:#262626;stroke-width:5;stroke-linecap:square;stroke-linejoin:round;stroke-miterlimit:10;stroke-dasharray:none;stroke-opacity:1"
         d="m 380,748.75 h 43.398" /><path
         id="path86"
         style="fill:none;stroke:#262626;stroke-width:5;stroke-linecap:square;stroke-linejoin:round;stroke-miterlimit:10;stroke-dasharray:none;stroke-opacity:1"
         d="m 380,1177.5 h 43.398" /><path
         id="path88"
         style="fill:none;stroke:#262626;stroke-width:5;stroke-linecap:square;stroke-linejoin:round;stroke-miterlimit:10;stroke-dasharray:none;stroke-opacity:1"
         d="m 380,1606.25 h 43.398" /><path
         id="path90"
         style="fill:none;stroke:#262626;stroke-width:5;stroke-linecap:square;stroke-linejoin:round;stroke-miterlimit:10;stroke-dasharray:none;stroke-opacity:1"
         d="m 380,2035 h 43.398" /><path
         id="path92"
         style="fill:none;stroke:#262626;stroke-width:5;stroke-linecap:square;stroke-linejoin:round;stroke-miterlimit:10;stroke-dasharray:none;stroke-opacity:1"
         d="m 380,2463.75 h 43.398" /><path
         id="path94"
         style="fill:none;stroke:#262626;stroke-width:5;stroke-linecap:square;stroke-linejoin:round;stroke-miterlimit:10;stroke-dasharray:none;stroke-opacity:1"
         d="m 380,2892.5 h 43.398" /><path
         id="path96"
         style="fill:none;stroke:#262626;stroke-width:5;stroke-linecap:square;stroke-linejoin:round;stroke-miterlimit:10;stroke-dasharray:none;stroke-opacity:1"
         d="m 380,3321.25 h 43.398" /><path
         id="path98"
         style="fill:none;stroke:#262626;stroke-width:5;stroke-linecap:square;stroke-linejoin:round;stroke-miterlimit:10;stroke-dasharray:none;stroke-opacity:1"
         d="m 380,3750 h 43.398" /><path
         id="path100"
         style="fill:none;stroke:#262626;stroke-width:5;stroke-linecap:square;stroke-linejoin:round;stroke-miterlimit:10;stroke-dasharray:none;stroke-opacity:1"
         d="m 4720,320 h -43.4" /><path
         id="path102"
         style="fill:none;stroke:#262626;stroke-width:5;stroke-linecap:square;stroke-linejoin:round;stroke-miterlimit:10;stroke-dasharray:none;stroke-opacity:1"
         d="m 4720,748.75 h -43.4" /><path
         id="path104"
         style="fill:none;stroke:#262626;stroke-width:5;stroke-linecap:square;stroke-linejoin:round;stroke-miterlimit:10;stroke-dasharray:none;stroke-opacity:1"
         d="m 4720,1177.5 h -43.4" /><path
         id="path106"
         style="fill:none;stroke:#262626;stroke-width:5;stroke-linecap:square;stroke-linejoin:round;stroke-miterlimit:10;stroke-dasharray:none;stroke-opacity:1"
         d="m 4720,1606.25 h -43.4" /><path
         id="path108"
         style="fill:none;stroke:#262626;stroke-width:5;stroke-linecap:square;stroke-linejoin:round;stroke-miterlimit:10;stroke-dasharray:none;stroke-opacity:1"
         d="m 4720,2035 h -43.4" /><path
         id="path110"
         style="fill:none;stroke:#262626;stroke-width:5;stroke-linecap:square;stroke-linejoin:round;stroke-miterlimit:10;stroke-dasharray:none;stroke-opacity:1"
         d="m 4720,2463.75 h -43.4" /><path
         id="path112"
         style="fill:none;stroke:#262626;stroke-width:5;stroke-linecap:square;stroke-linejoin:round;stroke-miterlimit:10;stroke-dasharray:none;stroke-opacity:1"
         d="m 4720,2892.5 h -43.4" /><path
         id="path114"
         style="fill:none;stroke:#262626;stroke-width:5;stroke-linecap:square;stroke-linejoin:round;stroke-miterlimit:10;stroke-dasharray:none;stroke-opacity:1"
         d="m 4720,3321.25 h -43.4" /><path
         id="path116"
         style="fill:none;stroke:#262626;stroke-width:5;stroke-linecap:square;stroke-linejoin:round;stroke-miterlimit:10;stroke-dasharray:none;stroke-opacity:1"
         d="m 4720,3750 h -43.4" /><g
         transform="scale(10)"
         id="g118"><text
           id="text138"
           style="font-variant:normal;font-weight:normal;font-size:10px;font-family:Helvetica;-inkscape-font-specification:Helvetica;writing-mode:lr-tb;fill:#262626;fill-opacity:1;fill-rule:nonzero;stroke:none"
           transform="matrix(1,0,0,-1,27,28.5)"><tspan
             id="tspan120"
             y="0"
             x="0">1</tspan><tspan
             id="tspan122"
             y="-42.875"
             x="-9 -3.4400001 -0.66000003">1.5</tspan><tspan
             id="tspan124"
             y="-85.75"
             x="0">2</tspan><tspan
             id="tspan126"
             y="-128.625"
             x="-9 -3.4400001 -0.66000003">2.5</tspan><tspan
             id="tspan128"
             y="-171.5"
             x="0">3</tspan><tspan
             id="tspan130"
             y="-214.375"
             x="-9 -3.4400001 -0.66000003">3.5</tspan><tspan
             id="tspan132"
             y="-257.25"
             x="0">4</tspan><tspan
             id="tspan134"
             y="-300.125"
             x="-9 -3.4400001 -0.66000003">4.5</tspan><tspan
             id="tspan136"
             y="-343"
             x="0">5</tspan></text>
<text
           id="text142"
           style="font-variant:normal;font-weight:normal;font-size:14px;font-family:Helvetica;-inkscape-font-specification:Helvetica;writing-mode:lr-tb;fill:#262626;fill-opacity:1;fill-rule:nonzero;stroke:none"
           transform="matrix(0,1,1,0,11,144.5)"><tspan
             id="tspan140"
             y="0"
             x="0 9.3380003 17.122 21.784 29.568001 32.675999 35.784 43.568001 46.675999 50.568001 59.905998 67.690002 75.473999 83.258003 91.042 98.825996">Parallel Speedup</tspan></text>
</g><g
         transform="scale(10)"
         id="g144"><text
           id="text148"
           style="font-variant:normal;font-weight:bold;font-size:18px;font-family:Helvetica;-inkscape-font-specification:Helvetica-Bold;writing-mode:lr-tb;fill:#000000;fill-opacity:1;fill-rule:nonzero;stroke:none"
           transform="matrix(1,0,0,-1,112.5,384.5)"><tspan
             id="tspan146"
             y="0"
             x="0 5.0040002 10.008 15.012 26.01 36.018002 42.012001 49.014 59.021999 65.015999 70.019997 81.017998 92.015999 97.019997 108.018 114.012 119.016 132.01199 148.01401 159.01199 169.02 180.01801 185.022 189.306 199.314 204.31799 215.31599 225.32401">Illustration of Amdahl's Law</tspan></text>
</g><path
         id="path150"
         style="fill:none;stroke:#0072bd;stroke-width:20;stroke-linecap:butt;stroke-linejoin:round;stroke-miterlimit:10;stroke-dasharray:none;stroke-opacity:1"
         d="m 423.398,320 43.403,559.242 43.398,393.538 43.403,291.98 L 597,1790 l 43.398,179.04 43.403,145.73 43.398,120.92 43.403,101.96 43.398,87.12 43.398,75.31 43.403,65.75 43.398,57.9 43.403,51.38 43.398,45.89 43.4,41.25 43.4,37.27 43.4,33.84 43.4,30.87 43.4,28.27 43.4,25.98 43.4,23.97 43.4,22.18 43.4,20.57 43.4,19.15 43.4,17.86 43.4,16.69 43.4,15.65 43.4,14.69 43.4,13.82 43.4,13.02 43.4,12.29 43.4,11.63 43.4,11.01 43.4,10.44 43.4,9.92 43.4,9.43 43.4,8.98 43.4,8.55 43.4,8.17 43.4,7.8 43.4,7.46 43.4,7.14 43.4,6.85 43.4,6.56 43.4,6.3 43.4,6.05 43.4,5.81 43.4,5.6 43.4,5.38 43.4,5.19 43.4,5.01 43.4,4.83 43.4,4.66 43.4,4.5 43.4,4.35 43.4,4.21 43.4,4.07 43.4,3.94 43.4,3.82 43.4,3.7 43.4,3.59 43.4,3.48 43.4,3.38 43.4,3.27 43.4,3.19 43.4,3.1 43.4,3 43.4,2.93 43.4,2.85 43.4,2.77 43.4,2.7 43.4,2.62 43.4,2.56 43.4,2.5 43.4,2.43 43.4,2.37 43.4,2.31 43.4,2.26 43.4,2.21 43.4,2.15 43.4,2.1 43.4,2.05 43.4,2.01 43.4,1.96 43.4,1.92 43.4,1.87 43.4,1.84 43.4,1.79 43.4,1.76 43.4,1.72 43.4,1.68 43.4,1.65 43.4,1.62 43.4,1.58 43.4,1.55 43.4,1.52 43.4,1.49 43.4,1.46 43.4,1.43" /><path
         id="path152"
         style="fill:none;stroke:#d95319;stroke-width:20;stroke-linecap:butt;stroke-linejoin:round;stroke-miterlimit:10;stroke-dasharray:none;stroke-opacity:1"
         d="M 423.398,3535.62 H 4720" /><path
         id="path154"
         style="fill:#ffffff;fill-opacity:1;fill-rule:nonzero;stroke:none"
         d="M 3080,420 H 4620 V 770 H 3080 Z" /><g
         transform="scale(10)"
         id="g156"><text
           id="text160"
           style="font-variant:normal;font-weight:normal;font-size:12px;font-family:Helvetica;-inkscape-font-specification:Helvetica;writing-mode:lr-tb;fill:#000000;fill-opacity:1;fill-rule:nonzero;stroke:none"
           transform="matrix(1,0,0,-1,345,62.8625)"><tspan
             id="tspan158"
             y="0"
             x="0 6.6719999 10.668 17.34 20.004 26.676001 32.675999 36.012001 42.683998 49.355999 52.692001 58.692001 65.363998 72.036003 78.708 85.379997 92.052002">projected speedup</tspan></text>
</g><path
         id="path162"
         style="fill:none;stroke:#0072bd;stroke-width:20;stroke-linecap:butt;stroke-linejoin:round;stroke-miterlimit:10;stroke-dasharray:none;stroke-opacity:1"
         d="m 3120,673.621 h 300" /><g
         transform="scale(10)"
         id="g164"><text
           id="text168"
           style="font-variant:normal;font-weight:normal;font-size:12px;font-family:Helvetica;-inkscape-font-specification:Helvetica;writing-mode:lr-tb;fill:#000000;fill-opacity:1;fill-rule:nonzero;stroke:none"
           transform="matrix(1,0,0,-1,345,47.1379)"><tspan
             id="tspan166"
             y="0"
             x="0 6 12.672 19.344 26.016001 32.688 39.360001 46.032001 49.368 52.032001 54.695999 64.692001 67.356003">speedup limit</tspan></text>
</g><path
         id="path170"
         style="fill:none;stroke:#d95319;stroke-width:20;stroke-linecap:butt;stroke-linejoin:round;stroke-miterlimit:10;stroke-dasharray:none;stroke-opacity:1"
         d="m 3120,516.379 h 300" /><path
         id="path172"
         style="fill:none;stroke:#262626;stroke-width:5;stroke-linecap:butt;stroke-linejoin:miter;stroke-miterlimit:10;stroke-dasharray:none;stroke-opacity:1"
         d="M 3080,420 H 4620 V 770 H 3080 Z" /></g></g></svg>