<?xml version="1.0" encoding="UTF-8" standalone="no"?>
<!-- Created with Inkscape (http://www.inkscape.org/) -->

<svg
   xmlns:dc="http://purl.org/dc/elements/1.1/"
   xmlns:cc="http://creativecommons.org/ns#"
   xmlns:rdf="http://www.w3.org/1999/02/22-rdf-syntax-ns#"
   xmlns:svg="http://www.w3.org/2000/svg"
   xmlns="http://www.w3.org/2000/svg"
   xmlns:sodipodi="http://sodipodi.sourceforge.net/DTD/sodipodi-0.dtd"
   xmlns:inkscape="http://www.inkscape.org/namespaces/inkscape"
   version="1.1"
   id="svg2"
   xml:space="preserve"
   width="497.33334"
   height="410.66666"
   viewBox="0 0 497.33334 410.66666"
   sodipodi:docname="speedup.svg"
   inkscape:version="0.92.3 (2405546, 2018-03-11)"><metadata
     id="metadata8"><rdf:RDF><cc:Work
         rdf:about=""><dc:format>image/svg+xml</dc:format><dc:type
           rdf:resource="http://purl.org/dc/dcmitype/StillImage" /><dc:title></dc:title></cc:Work></rdf:RDF></metadata><defs
     id="defs6" /><sodipodi:namedview
     pagecolor="#ffffff"
     bordercolor="#666666"
     borderopacity="1"
     objecttolerance="10"
     gridtolerance="10"
     guidetolerance="10"
     inkscape:pageopacity="0"
     inkscape:pageshadow="2"
     inkscape:window-width="1586"
     inkscape:window-height="1036"
     id="namedview4"
     showgrid="false"
     inkscape:zoom="1.9642223"
     inkscape:cx="248.66667"
     inkscape:cy="205.33333"
     inkscape:window-x="0"
     inkscape:window-y="24"
     inkscape:window-maximized="0"
     inkscape:current-layer="g10" /><g
     id="g10"
     inkscape:groupmode="layer"
     inkscape:label="ink_ext_XXXXXX"
     transform="matrix(1.3333333,0,0,-1.3333333,0,410.66667)"><g
       id="g12"
       transform="scale(0.1)"><path
         d="M 0,0 H 4040 V 3120 H 0 Z"
         style="fill:#ffffff;fill-opacity:1;fill-rule:nonzero;stroke:none"
         id="path14"
         inkscape:connector-curvature="0" /><path
         d="M 0,0 H 4040 V 3120 H 0 Z"
         style="fill:#ffffff;fill-opacity:1;fill-rule:nonzero;stroke:none"
         id="path16"
         inkscape:connector-curvature="0" /><path
         d="m 387.5,322.5 h 3255 v 2535 h -3255 z"
         style="fill:#ffffff;fill-opacity:1;fill-rule:nonzero;stroke:none"
         id="path18"
         inkscape:connector-curvature="0" /><path
         d="m 387.5,322.5 h 3255"
         style="fill:none;stroke:#262626;stroke-width:5.00250006;stroke-linecap:square;stroke-linejoin:round;stroke-miterlimit:10;stroke-dasharray:none;stroke-opacity:1"
         id="path20"
         inkscape:connector-curvature="0" /><path
         d="m 387.5,2857.5 h 3255"
         style="fill:none;stroke:#262626;stroke-width:5.00250006;stroke-linecap:square;stroke-linejoin:round;stroke-miterlimit:10;stroke-dasharray:none;stroke-opacity:1"
         id="path22"
         inkscape:connector-curvature="0" /><path
         d="m 387.5,322.5 v 32.551"
         style="fill:none;stroke:#262626;stroke-width:5.00250006;stroke-linecap:square;stroke-linejoin:round;stroke-miterlimit:10;stroke-dasharray:none;stroke-opacity:1"
         id="path24"
         inkscape:connector-curvature="0" /><path
         d="m 1038.5,322.5 v 32.551"
         style="fill:none;stroke:#262626;stroke-width:5.00250006;stroke-linecap:square;stroke-linejoin:round;stroke-miterlimit:10;stroke-dasharray:none;stroke-opacity:1"
         id="path26"
         inkscape:connector-curvature="0" /><path
         d="m 1689.5,322.5 v 32.551"
         style="fill:none;stroke:#262626;stroke-width:5.00250006;stroke-linecap:square;stroke-linejoin:round;stroke-miterlimit:10;stroke-dasharray:none;stroke-opacity:1"
         id="path28"
         inkscape:connector-curvature="0" /><path
         d="m 2340.5,322.5 v 32.551"
         style="fill:none;stroke:#262626;stroke-width:5.00250006;stroke-linecap:square;stroke-linejoin:round;stroke-miterlimit:10;stroke-dasharray:none;stroke-opacity:1"
         id="path30"
         inkscape:connector-curvature="0" /><path
         d="m 2991.5,322.5 v 32.551"
         style="fill:none;stroke:#262626;stroke-width:5.00250006;stroke-linecap:square;stroke-linejoin:round;stroke-miterlimit:10;stroke-dasharray:none;stroke-opacity:1"
         id="path32"
         inkscape:connector-curvature="0" /><path
         d="m 3642.5,322.5 v 32.551"
         style="fill:none;stroke:#262626;stroke-width:5.00250006;stroke-linecap:square;stroke-linejoin:round;stroke-miterlimit:10;stroke-dasharray:none;stroke-opacity:1"
         id="path34"
         inkscape:connector-curvature="0" /><path
         d="m 387.5,2857.5 v -32.55"
         style="fill:none;stroke:#262626;stroke-width:5.00250006;stroke-linecap:square;stroke-linejoin:round;stroke-miterlimit:10;stroke-dasharray:none;stroke-opacity:1"
         id="path36"
         inkscape:connector-curvature="0" /><path
         d="m 1038.5,2857.5 v -32.55"
         style="fill:none;stroke:#262626;stroke-width:5.00250006;stroke-linecap:square;stroke-linejoin:round;stroke-miterlimit:10;stroke-dasharray:none;stroke-opacity:1"
         id="path38"
         inkscape:connector-curvature="0" /><path
         d="m 1689.5,2857.5 v -32.55"
         style="fill:none;stroke:#262626;stroke-width:5.00250006;stroke-linecap:square;stroke-linejoin:round;stroke-miterlimit:10;stroke-dasharray:none;stroke-opacity:1"
         id="path40"
         inkscape:connector-curvature="0" /><path
         d="m 2340.5,2857.5 v -32.55"
         style="fill:none;stroke:#262626;stroke-width:5.00250006;stroke-linecap:square;stroke-linejoin:round;stroke-miterlimit:10;stroke-dasharray:none;stroke-opacity:1"
         id="path42"
         inkscape:connector-curvature="0" /><path
         d="m 2991.5,2857.5 v -32.55"
         style="fill:none;stroke:#262626;stroke-width:5.00250006;stroke-linecap:square;stroke-linejoin:round;stroke-miterlimit:10;stroke-dasharray:none;stroke-opacity:1"
         id="path44"
         inkscape:connector-curvature="0" /><path
         d="m 3642.5,2857.5 v -32.55"
         style="fill:none;stroke:#262626;stroke-width:5.00250006;stroke-linecap:square;stroke-linejoin:round;stroke-miterlimit:10;stroke-dasharray:none;stroke-opacity:1"
         id="path46"
         inkscape:connector-curvature="0" /><g
         id="g48"
         transform="scale(10)"><text
           transform="matrix(1,0,0,-1,35.375,18.5)"
           style="font-variant:normal;font-weight:normal;font-size:9.99975014px;font-family:Helvetica;-inkscape-font-specification:Helvetica;writing-mode:lr-tb;fill:#262626;fill-opacity:1;fill-rule:nonzero;stroke:none"
           id="text52"><tspan
             x="0 62.099949 67.659805 127.19992 132.75978 192.2999 197.85976 257.39987 262.95972 319.12482 324.68469 330.24454"
             y="0"
             sodipodi:role="line"
             id="tspan50">020406080100</tspan></text>
<text
           transform="matrix(1,0,0,-1,143,1)"
           style="font-variant:normal;font-weight:normal;font-size:14.00020027px;font-family:Helvetica;-inkscape-font-specification:Helvetica;writing-mode:lr-tb;fill:#262626;fill-opacity:1;fill-rule:nonzero;stroke:none"
           id="text56"><tspan
             x="0 10.108145 17.892256 29.554422 37.338531 45.122646 49.78471 53.676765 61.460876 65.352936 69.244987 76.245087 84.029198 88.691269 96.47538"
             y="0"
             sodipodi:role="line"
             id="tspan54">Number of cores</tspan></text>
</g><path
         d="m 387.5,322.5 v 2535"
         style="fill:none;stroke:#262626;stroke-width:5.00250006;stroke-linecap:square;stroke-linejoin:round;stroke-miterlimit:10;stroke-dasharray:none;stroke-opacity:1"
         id="path58"
         inkscape:connector-curvature="0" /><path
         d="m 3642.5,322.5 v 2535"
         style="fill:none;stroke:#262626;stroke-width:5.00250006;stroke-linecap:square;stroke-linejoin:round;stroke-miterlimit:10;stroke-dasharray:none;stroke-opacity:1"
         id="path60"
         inkscape:connector-curvature="0" /><path
         d="m 387.5,322.5 h 32.551"
         style="fill:none;stroke:#262626;stroke-width:5.00250006;stroke-linecap:square;stroke-linejoin:round;stroke-miterlimit:10;stroke-dasharray:none;stroke-opacity:1"
         id="path62"
         inkscape:connector-curvature="0" /><path
         d="m 387.5,639.375 h 32.551"
         style="fill:none;stroke:#262626;stroke-width:5.00250006;stroke-linecap:square;stroke-linejoin:round;stroke-miterlimit:10;stroke-dasharray:none;stroke-opacity:1"
         id="path64"
         inkscape:connector-curvature="0" /><path
         d="m 387.5,956.25 h 32.551"
         style="fill:none;stroke:#262626;stroke-width:5.00250006;stroke-linecap:square;stroke-linejoin:round;stroke-miterlimit:10;stroke-dasharray:none;stroke-opacity:1"
         id="path66"
         inkscape:connector-curvature="0" /><path
         d="m 387.5,1273.13 h 32.551"
         style="fill:none;stroke:#262626;stroke-width:5.00250006;stroke-linecap:square;stroke-linejoin:round;stroke-miterlimit:10;stroke-dasharray:none;stroke-opacity:1"
         id="path68"
         inkscape:connector-curvature="0" /><path
         d="m 387.5,1590 h 32.551"
         style="fill:none;stroke:#262626;stroke-width:5.00250006;stroke-linecap:square;stroke-linejoin:round;stroke-miterlimit:10;stroke-dasharray:none;stroke-opacity:1"
         id="path70"
         inkscape:connector-curvature="0" /><path
         d="m 387.5,1906.88 h 32.551"
         style="fill:none;stroke:#262626;stroke-width:5.00250006;stroke-linecap:square;stroke-linejoin:round;stroke-miterlimit:10;stroke-dasharray:none;stroke-opacity:1"
         id="path72"
         inkscape:connector-curvature="0" /><path
         d="m 387.5,2223.75 h 32.551"
         style="fill:none;stroke:#262626;stroke-width:5.00250006;stroke-linecap:square;stroke-linejoin:round;stroke-miterlimit:10;stroke-dasharray:none;stroke-opacity:1"
         id="path74"
         inkscape:connector-curvature="0" /><path
         d="m 387.5,2540.63 h 32.551"
         style="fill:none;stroke:#262626;stroke-width:5.00250006;stroke-linecap:square;stroke-linejoin:round;stroke-miterlimit:10;stroke-dasharray:none;stroke-opacity:1"
         id="path76"
         inkscape:connector-curvature="0" /><path
         d="m 387.5,2857.5 h 32.551"
         style="fill:none;stroke:#262626;stroke-width:5.00250006;stroke-linecap:square;stroke-linejoin:round;stroke-miterlimit:10;stroke-dasharray:none;stroke-opacity:1"
         id="path78"
         inkscape:connector-curvature="0" /><path
         d="m 3642.5,322.5 h -32.55"
         style="fill:none;stroke:#262626;stroke-width:5.00250006;stroke-linecap:square;stroke-linejoin:round;stroke-miterlimit:10;stroke-dasharray:none;stroke-opacity:1"
         id="path80"
         inkscape:connector-curvature="0" /><path
         d="m 3642.5,639.375 h -32.55"
         style="fill:none;stroke:#262626;stroke-width:5.00250006;stroke-linecap:square;stroke-linejoin:round;stroke-miterlimit:10;stroke-dasharray:none;stroke-opacity:1"
         id="path82"
         inkscape:connector-curvature="0" /><path
         d="m 3642.5,956.25 h -32.55"
         style="fill:none;stroke:#262626;stroke-width:5.00250006;stroke-linecap:square;stroke-linejoin:round;stroke-miterlimit:10;stroke-dasharray:none;stroke-opacity:1"
         id="path84"
         inkscape:connector-curvature="0" /><path
         d="m 3642.5,1273.13 h -32.55"
         style="fill:none;stroke:#262626;stroke-width:5.00250006;stroke-linecap:square;stroke-linejoin:round;stroke-miterlimit:10;stroke-dasharray:none;stroke-opacity:1"
         id="path86"
         inkscape:connector-curvature="0" /><path
         d="m 3642.5,1590 h -32.55"
         style="fill:none;stroke:#262626;stroke-width:5.00250006;stroke-linecap:square;stroke-linejoin:round;stroke-miterlimit:10;stroke-dasharray:none;stroke-opacity:1"
         id="path88"
         inkscape:connector-curvature="0" /><path
         d="m 3642.5,1906.88 h -32.55"
         style="fill:none;stroke:#262626;stroke-width:5.00250006;stroke-linecap:square;stroke-linejoin:round;stroke-miterlimit:10;stroke-dasharray:none;stroke-opacity:1"
         id="path90"
         inkscape:connector-curvature="0" /><path
         d="m 3642.5,2223.75 h -32.55"
         style="fill:none;stroke:#262626;stroke-width:5.00250006;stroke-linecap:square;stroke-linejoin:round;stroke-miterlimit:10;stroke-dasharray:none;stroke-opacity:1"
         id="path92"
         inkscape:connector-curvature="0" /><path
         d="m 3642.5,2540.63 h -32.55"
         style="fill:none;stroke:#262626;stroke-width:5.00250006;stroke-linecap:square;stroke-linejoin:round;stroke-miterlimit:10;stroke-dasharray:none;stroke-opacity:1"
         id="path94"
         inkscape:connector-curvature="0" /><path
         d="m 3642.5,2857.5 h -32.55"
         style="fill:none;stroke:#262626;stroke-width:5.00250006;stroke-linecap:square;stroke-linejoin:round;stroke-miterlimit:10;stroke-dasharray:none;stroke-opacity:1"
         id="path96"
         inkscape:connector-curvature="0" /><g
         id="g98"
         transform="scale(10)"><text
           transform="matrix(1,0,0,-1,28,28.875)"
           style="font-variant:normal;font-weight:normal;font-size:9.99975014px;font-family:Helvetica;-inkscape-font-specification:Helvetica;writing-mode:lr-tb;fill:#262626;fill-opacity:1;fill-rule:nonzero;stroke:none"
           id="text118"><tspan
             x="0"
             y="0"
             id="tspan100">1</tspan><tspan
             x="-9.75 -4.1901388 -1.4102085"
             y="-31.6875"
             sodipodi:role="line"
             id="tspan102">1.5</tspan><tspan
             x="0"
             y="-63.375"
             id="tspan104">2</tspan><tspan
             x="-9.75 -4.1901388 -1.4102085"
             y="-95.0625"
             sodipodi:role="line"
             id="tspan106">2.5</tspan><tspan
             x="0"
             y="-126.75"
             id="tspan108">3</tspan><tspan
             x="-9.75 -4.1901388 -1.4102085"
             y="-158.4375"
             sodipodi:role="line"
             id="tspan110">3.5</tspan><tspan
             x="0"
             y="-190.125"
             id="tspan112">4</tspan><tspan
             x="-9.75 -4.1901388 -1.4102085"
             y="-221.8125"
             sodipodi:role="line"
             id="tspan114">4.5</tspan><tspan
             x="0"
             y="-253.5"
             id="tspan116">5</tspan></text>
<text
           transform="matrix(0,1,1,0,11.5,100.125)"
           style="font-variant:normal;font-weight:normal;font-size:14.00020027px;font-family:Helvetica;-inkscape-font-specification:Helvetica;writing-mode:lr-tb;fill:#262626;fill-opacity:1;fill-rule:nonzero;stroke:none"
           id="text122"><tspan
             x="0 9.3381338 17.122244 21.784311 29.568422 32.676468 35.784512 43.568623 46.676666 50.568722 59.906857 67.690964 75.475075 83.259186 91.043297 98.827415"
             y="0"
             sodipodi:role="line"
             id="tspan120">Parallel Speedup</tspan></text>
</g><g
         id="g124"
         transform="scale(10)"><text
           transform="matrix(1,0,0,-1,33.1254,293.625)"
           style="font-variant:normal;font-weight:bold;font-size:18px;font-family:Helvetica;-inkscape-font-specification:Helvetica-Bold;writing-mode:lr-tb;fill:#000000;fill-opacity:1;fill-rule:nonzero;stroke:none"
           id="text128"><tspan
             x="0 12.006 23.004 33.012001 43.02 54.018002 65.015999 76.014 81.017998 92.015999 98.010002 103.014 115.02 125.028 135.036 151.03799 162.036 167.03999 177.048 182.052 194.058 204.06599 214.07401 225.07201 236.07001 247.06799 257.07599 268.07401 279.07199"
             y="0"
             sodipodi:role="line"
             id="tspan126">Speedup of Example Pseudocode</tspan></text>
</g><path
         d="m 420.051,322.5 32.551,422.496 32.546,301.784 32.551,226.35 32.551,176.03 32.551,140.84 32.551,115.23 32.546,96.02 32.551,81.25 32.551,69.64 32.551,60.36 32.551,52.81 32.546,46.6 32.551,41.42 32.551,37.07 32.551,33.35 32.551,30.18 32.546,27.43 32.552,25.05 32.55,22.96 32.55,21.13 32.55,19.5 32.55,18.05 32.55,16.77 32.55,15.61 32.55,14.57 32.55,13.63 32.55,12.77 32.55,12.01 32.55,11.3 32.55,10.65 32.55,10.06 32.55,9.51 32.55,9.02 32.55,8.55 32.55,8.13 32.55,7.72 32.55,7.36 32.55,7.02 32.55,6.7 32.55,6.4 32.55,6.13 32.55,5.86 32.55,5.62 32.55,5.38 32.55,5.18 32.55,4.97 32.55,4.78 32.55,4.6 32.55,4.43 32.55,4.27 32.55,4.11 32.55,3.97 32.55,3.83 32.55,3.71 32.55,3.58 32.55,3.46 32.55,3.36 32.55,3.24 32.55,3.15 32.55,3.04 32.55,2.96 32.55,2.86 32.55,2.78 32.55,2.7 32.55,2.63 32.55,2.55 32.55,2.48 32.55,2.41 32.55,2.34 32.55,2.29 32.55,2.22 32.55,2.17 32.55,2.11 32.55,2.06 32.55,2 32.55,1.96 32.55,1.91 32.55,1.86 32.55,1.82 32.55,1.78 32.55,1.73 32.55,1.69 32.55,1.65 32.55,1.62 32.55,1.58 32.55,1.56 32.55,1.51 32.55,1.48 32.55,1.45 32.55,1.42 32.55,1.39 32.55,1.36 32.55,1.33 32.55,1.31 32.55,1.28 32.55,1.25 32.55,1.23 32.55,1.21 32.55,1.19"
         style="fill:none;stroke:#0072bd;stroke-width:20.00250053;stroke-linecap:butt;stroke-linejoin:round;stroke-miterlimit:10;stroke-dasharray:none;stroke-opacity:1"
         id="path130"
         inkscape:connector-curvature="0" /><path
         d="M 420.051,2857.5 H 3642.5"
         style="fill:none;stroke:#d95319;stroke-width:20.00250053;stroke-linecap:butt;stroke-linejoin:round;stroke-miterlimit:10;stroke-dasharray:none;stroke-opacity:1"
         id="path132"
         inkscape:connector-curvature="0" /><path
         d="M 2037.5,420 H 3545 V 742.5 H 2037.5 Z"
         style="fill:#ffffff;fill-opacity:1;fill-rule:nonzero;stroke:none"
         id="path134"
         inkscape:connector-curvature="0" /><g
         id="g136"
         transform="scale(10)"><text
           transform="matrix(1,0,0,-1,239,61.3984)"
           style="font-variant:normal;font-weight:normal;font-size:12px;font-family:Helvetica;-inkscape-font-specification:Helvetica;writing-mode:lr-tb;fill:#000000;fill-opacity:1;fill-rule:nonzero;stroke:none"
           id="text140"><tspan
             x="0 6.6719999 10.668 17.34 20.004 26.676001 32.675999 36.012001 42.683998 49.355999 52.692001 58.692001 65.363998 72.036003 78.708 85.379997 92.052002"
             y="0"
             sodipodi:role="line"
             id="tspan138">projected speedup</tspan></text>
</g><path
         d="m 2067.5,655.238 h 300"
         style="fill:none;stroke:#0072bd;stroke-width:20.00250053;stroke-linecap:butt;stroke-linejoin:round;stroke-miterlimit:10;stroke-dasharray:none;stroke-opacity:1"
         id="path142"
         inkscape:connector-curvature="0" /><g
         id="g144"
         transform="scale(10)"><text
           transform="matrix(1,0,0,-1,239,46.6016)"
           style="font-variant:normal;font-weight:normal;font-size:12px;font-family:Helvetica;-inkscape-font-specification:Helvetica;writing-mode:lr-tb;fill:#000000;fill-opacity:1;fill-rule:nonzero;stroke:none"
           id="text148"><tspan
             x="0 6 12.672 19.344 26.016001 32.688 39.360001 46.032001 49.368 52.032001 54.695999 64.692001 67.356003"
             y="0"
             sodipodi:role="line"
             id="tspan146">speedup limit</tspan></text>
</g><path
         d="m 2067.5,507.262 h 300"
         style="fill:none;stroke:#d95319;stroke-width:20.00250053;stroke-linecap:butt;stroke-linejoin:round;stroke-miterlimit:10;stroke-dasharray:none;stroke-opacity:1"
         id="path150"
         inkscape:connector-curvature="0" /><path
         d="M 2037.5,420 H 3545 V 742.5 H 2037.5 Z"
         style="fill:none;stroke:#262626;stroke-width:5.00250006;stroke-linecap:butt;stroke-linejoin:miter;stroke-miterlimit:10;stroke-dasharray:none;stroke-opacity:1"
         id="path152"
         inkscape:connector-curvature="0" /></g></g></svg>