<?xml version="1.0" encoding="UTF-8" standalone="no"?>
<svg
   xmlns:dc="http://purl.org/dc/elements/1.1/"
   xmlns:cc="http://creativecommons.org/ns#"
   xmlns:rdf="http://www.w3.org/1999/02/22-rdf-syntax-ns#"
   xmlns:svg="http://www.w3.org/2000/svg"
   xmlns="http://www.w3.org/2000/svg"
   viewBox="0 0 636 517.33331"
   height="517.33331"
   width="636"
   xml:space="preserve"
   id="svg2"
   version="1.1"><metadata
     id="metadata8"><rdf:RDF><cc:Work
         rdf:about=""><dc:format>image/svg+xml</dc:format><dc:type
           rdf:resource="http://purl.org/dc/dcmitype/StillImage" /></cc:Work></rdf:RDF></metadata><defs
     id="defs6" /><g
     transform="matrix(1.3333333,0,0,-1.3333333,0,517.33333)"
     id="g10"><g
       transform="scale(0.1)"
       id="g12"><path
         id="path14"
         style="fill:#ffffff;fill-opacity:1;fill-rule:nonzero;stroke:none"
         d="M 0,0 H 5220 V 4040 H 0 Z" /><path
         id="path16"
         style="fill:#ffffff;fill-opacity:1;fill-rule:nonzero;stroke:none"
         d="M 0,0 H 5220 V 4040 H 0 Z" /><path
         id="path18"
         style="fill:#ffffff;fill-opacity:1;fill-rule:nonzero;stroke:none"
         d="M 350,300 H 4690 V 3730 H 350 Z" /><path
         id="path20"
         style="fill:none;stroke:#262626;stroke-width:5;stroke-linecap:square;stroke-linejoin:round;stroke-miterlimit:10;stroke-dasharray:none;stroke-opacity:1"
         d="M 350,300 H 4690" /><path
         id="path22"
         style="fill:none;stroke:#262626;stroke-width:5;stroke-linecap:square;stroke-linejoin:round;stroke-miterlimit:10;stroke-dasharray:none;stroke-opacity:1"
         d="M 350,3730 H 4690" /><path
         id="path24"
         style="fill:none;stroke:#262626;stroke-width:5;stroke-linecap:square;stroke-linejoin:round;stroke-miterlimit:10;stroke-dasharray:none;stroke-opacity:1"
         d="m 350,300 v 43.398" /><path
         id="path26"
         style="fill:none;stroke:#262626;stroke-width:5;stroke-linecap:square;stroke-linejoin:round;stroke-miterlimit:10;stroke-dasharray:none;stroke-opacity:1"
         d="m 784,300 v 43.398" /><path
         id="path28"
         style="fill:none;stroke:#262626;stroke-width:5;stroke-linecap:square;stroke-linejoin:round;stroke-miterlimit:10;stroke-dasharray:none;stroke-opacity:1"
         d="m 1218,300 v 43.398" /><path
         id="path30"
         style="fill:none;stroke:#262626;stroke-width:5;stroke-linecap:square;stroke-linejoin:round;stroke-miterlimit:10;stroke-dasharray:none;stroke-opacity:1"
         d="m 1652,300 v 43.398" /><path
         id="path32"
         style="fill:none;stroke:#262626;stroke-width:5;stroke-linecap:square;stroke-linejoin:round;stroke-miterlimit:10;stroke-dasharray:none;stroke-opacity:1"
         d="m 2086,300 v 43.398" /><path
         id="path34"
         style="fill:none;stroke:#262626;stroke-width:5;stroke-linecap:square;stroke-linejoin:round;stroke-miterlimit:10;stroke-dasharray:none;stroke-opacity:1"
         d="m 2520,300 v 43.398" /><path
         id="path36"
         style="fill:none;stroke:#262626;stroke-width:5;stroke-linecap:square;stroke-linejoin:round;stroke-miterlimit:10;stroke-dasharray:none;stroke-opacity:1"
         d="m 2954,300 v 43.398" /><path
         id="path38"
         style="fill:none;stroke:#262626;stroke-width:5;stroke-linecap:square;stroke-linejoin:round;stroke-miterlimit:10;stroke-dasharray:none;stroke-opacity:1"
         d="m 3388,300 v 43.398" /><path
         id="path40"
         style="fill:none;stroke:#262626;stroke-width:5;stroke-linecap:square;stroke-linejoin:round;stroke-miterlimit:10;stroke-dasharray:none;stroke-opacity:1"
         d="m 3822,300 v 43.398" /><path
         id="path42"
         style="fill:none;stroke:#262626;stroke-width:5;stroke-linecap:square;stroke-linejoin:round;stroke-miterlimit:10;stroke-dasharray:none;stroke-opacity:1"
         d="m 4256,300 v 43.398" /><path
         id="path44"
         style="fill:none;stroke:#262626;stroke-width:5;stroke-linecap:square;stroke-linejoin:round;stroke-miterlimit:10;stroke-dasharray:none;stroke-opacity:1"
         d="m 4690,300 v 43.398" /><path
         id="path46"
         style="fill:none;stroke:#262626;stroke-width:5;stroke-linecap:square;stroke-linejoin:round;stroke-miterlimit:10;stroke-dasharray:none;stroke-opacity:1"
         d="m 350,3730 v -43.4" /><path
         id="path48"
         style="fill:none;stroke:#262626;stroke-width:5;stroke-linecap:square;stroke-linejoin:round;stroke-miterlimit:10;stroke-dasharray:none;stroke-opacity:1"
         d="m 784,3730 v -43.4" /><path
         id="path50"
         style="fill:none;stroke:#262626;stroke-width:5;stroke-linecap:square;stroke-linejoin:round;stroke-miterlimit:10;stroke-dasharray:none;stroke-opacity:1"
         d="m 1218,3730 v -43.4" /><path
         id="path52"
         style="fill:none;stroke:#262626;stroke-width:5;stroke-linecap:square;stroke-linejoin:round;stroke-miterlimit:10;stroke-dasharray:none;stroke-opacity:1"
         d="m 1652,3730 v -43.4" /><path
         id="path54"
         style="fill:none;stroke:#262626;stroke-width:5;stroke-linecap:square;stroke-linejoin:round;stroke-miterlimit:10;stroke-dasharray:none;stroke-opacity:1"
         d="m 2086,3730 v -43.4" /><path
         id="path56"
         style="fill:none;stroke:#262626;stroke-width:5;stroke-linecap:square;stroke-linejoin:round;stroke-miterlimit:10;stroke-dasharray:none;stroke-opacity:1"
         d="m 2520,3730 v -43.4" /><path
         id="path58"
         style="fill:none;stroke:#262626;stroke-width:5;stroke-linecap:square;stroke-linejoin:round;stroke-miterlimit:10;stroke-dasharray:none;stroke-opacity:1"
         d="m 2954,3730 v -43.4" /><path
         id="path60"
         style="fill:none;stroke:#262626;stroke-width:5;stroke-linecap:square;stroke-linejoin:round;stroke-miterlimit:10;stroke-dasharray:none;stroke-opacity:1"
         d="m 3388,3730 v -43.4" /><path
         id="path62"
         style="fill:none;stroke:#262626;stroke-width:5;stroke-linecap:square;stroke-linejoin:round;stroke-miterlimit:10;stroke-dasharray:none;stroke-opacity:1"
         d="m 3822,3730 v -43.4" /><path
         id="path64"
         style="fill:none;stroke:#262626;stroke-width:5;stroke-linecap:square;stroke-linejoin:round;stroke-miterlimit:10;stroke-dasharray:none;stroke-opacity:1"
         d="m 4256,3730 v -43.4" /><path
         id="path66"
         style="fill:none;stroke:#262626;stroke-width:5;stroke-linecap:square;stroke-linejoin:round;stroke-miterlimit:10;stroke-dasharray:none;stroke-opacity:1"
         d="m 4690,3730 v -43.4" /><g
         transform="scale(10)"
         id="g68"><text
           id="text72"
           style="font-variant:normal;font-weight:normal;font-size:10px;font-family:Helvetica;-inkscape-font-specification:Helvetica;writing-mode:lr-tb;fill:#262626;fill-opacity:1;fill-rule:nonzero;stroke:none"
           transform="matrix(1,0,0,-1,31.5,16)"><tspan
             id="tspan70"
             y="0"
             x="0 40.400002 45.959999 83.800003 89.360001 127.2 132.75999 170.60001 176.16 214 219.56 257.39999 262.95999 300.79999 306.35999 344.20001 349.76001 387.60001 393.16 427.5 433.06 438.62">0102030405060708090100</tspan></text>
<text
           id="text76"
           style="font-variant:normal;font-weight:normal;font-size:11px;font-family:Helvetica;-inkscape-font-specification:Helvetica;writing-mode:lr-tb;fill:#262626;fill-opacity:1;fill-rule:nonzero;stroke:none"
           transform="matrix(1,0,0,-1,206,1)"><tspan
             id="tspan74"
             y="0"
             x="0 7.9419999 14.058 23.221001 29.337 35.452999 39.116001 42.174 48.290001 51.348 54.405998 59.905998 66.022003 69.684998 75.801003">Number of cores</tspan></text>
</g><path
         id="path78"
         style="fill:none;stroke:#262626;stroke-width:5;stroke-linecap:square;stroke-linejoin:round;stroke-miterlimit:10;stroke-dasharray:none;stroke-opacity:1"
         d="M 350,300 V 3730" /><path
         id="path80"
         style="fill:none;stroke:#262626;stroke-width:5;stroke-linecap:square;stroke-linejoin:round;stroke-miterlimit:10;stroke-dasharray:none;stroke-opacity:1"
         d="M 4690,300 V 3730" /><path
         id="path82"
         style="fill:none;stroke:#262626;stroke-width:5;stroke-linecap:square;stroke-linejoin:round;stroke-miterlimit:10;stroke-dasharray:none;stroke-opacity:1"
         d="m 350,300 h 43.398" /><path
         id="path84"
         style="fill:none;stroke:#262626;stroke-width:5;stroke-linecap:square;stroke-linejoin:round;stroke-miterlimit:10;stroke-dasharray:none;stroke-opacity:1"
         d="m 350,728.75 h 43.398" /><path
         id="path86"
         style="fill:none;stroke:#262626;stroke-width:5;stroke-linecap:square;stroke-linejoin:round;stroke-miterlimit:10;stroke-dasharray:none;stroke-opacity:1"
         d="m 350,1157.5 h 43.398" /><path
         id="path88"
         style="fill:none;stroke:#262626;stroke-width:5;stroke-linecap:square;stroke-linejoin:round;stroke-miterlimit:10;stroke-dasharray:none;stroke-opacity:1"
         d="m 350,1586.25 h 43.398" /><path
         id="path90"
         style="fill:none;stroke:#262626;stroke-width:5;stroke-linecap:square;stroke-linejoin:round;stroke-miterlimit:10;stroke-dasharray:none;stroke-opacity:1"
         d="m 350,2015 h 43.398" /><path
         id="path92"
         style="fill:none;stroke:#262626;stroke-width:5;stroke-linecap:square;stroke-linejoin:round;stroke-miterlimit:10;stroke-dasharray:none;stroke-opacity:1"
         d="m 350,2443.75 h 43.398" /><path
         id="path94"
         style="fill:none;stroke:#262626;stroke-width:5;stroke-linecap:square;stroke-linejoin:round;stroke-miterlimit:10;stroke-dasharray:none;stroke-opacity:1"
         d="m 350,2872.5 h 43.398" /><path
         id="path96"
         style="fill:none;stroke:#262626;stroke-width:5;stroke-linecap:square;stroke-linejoin:round;stroke-miterlimit:10;stroke-dasharray:none;stroke-opacity:1"
         d="m 350,3301.25 h 43.398" /><path
         id="path98"
         style="fill:none;stroke:#262626;stroke-width:5;stroke-linecap:square;stroke-linejoin:round;stroke-miterlimit:10;stroke-dasharray:none;stroke-opacity:1"
         d="m 350,3730 h 43.398" /><path
         id="path100"
         style="fill:none;stroke:#262626;stroke-width:5;stroke-linecap:square;stroke-linejoin:round;stroke-miterlimit:10;stroke-dasharray:none;stroke-opacity:1"
         d="m 4690,300 h -43.4" /><path
         id="path102"
         style="fill:none;stroke:#262626;stroke-width:5;stroke-linecap:square;stroke-linejoin:round;stroke-miterlimit:10;stroke-dasharray:none;stroke-opacity:1"
         d="m 4690,728.75 h -43.4" /><path
         id="path104"
         style="fill:none;stroke:#262626;stroke-width:5;stroke-linecap:square;stroke-linejoin:round;stroke-miterlimit:10;stroke-dasharray:none;stroke-opacity:1"
         d="m 4690,1157.5 h -43.4" /><path
         id="path106"
         style="fill:none;stroke:#262626;stroke-width:5;stroke-linecap:square;stroke-linejoin:round;stroke-miterlimit:10;stroke-dasharray:none;stroke-opacity:1"
         d="m 4690,1586.25 h -43.4" /><path
         id="path108"
         style="fill:none;stroke:#262626;stroke-width:5;stroke-linecap:square;stroke-linejoin:round;stroke-miterlimit:10;stroke-dasharray:none;stroke-opacity:1"
         d="m 4690,2015 h -43.4" /><path
         id="path110"
         style="fill:none;stroke:#262626;stroke-width:5;stroke-linecap:square;stroke-linejoin:round;stroke-miterlimit:10;stroke-dasharray:none;stroke-opacity:1"
         d="m 4690,2443.75 h -43.4" /><path
         id="path112"
         style="fill:none;stroke:#262626;stroke-width:5;stroke-linecap:square;stroke-linejoin:round;stroke-miterlimit:10;stroke-dasharray:none;stroke-opacity:1"
         d="m 4690,2872.5 h -43.4" /><path
         id="path114"
         style="fill:none;stroke:#262626;stroke-width:5;stroke-linecap:square;stroke-linejoin:round;stroke-miterlimit:10;stroke-dasharray:none;stroke-opacity:1"
         d="m 4690,3301.25 h -43.4" /><path
         id="path116"
         style="fill:none;stroke:#262626;stroke-width:5;stroke-linecap:square;stroke-linejoin:round;stroke-miterlimit:10;stroke-dasharray:none;stroke-opacity:1"
         d="m 4690,3730 h -43.4" /><g
         transform="scale(10)"
         id="g118"><text
           id="text138"
           style="font-variant:normal;font-weight:normal;font-size:10px;font-family:Helvetica;-inkscape-font-specification:Helvetica;writing-mode:lr-tb;fill:#262626;fill-opacity:1;fill-rule:nonzero;stroke:none"
           transform="matrix(1,0,0,-1,24,26.5)"><tspan
             id="tspan120"
             y="0"
             x="0">1</tspan><tspan
             id="tspan122"
             y="-42.875"
             x="-9 -3.4400001 -0.66000003">1.5</tspan><tspan
             id="tspan124"
             y="-85.75"
             x="0">2</tspan><tspan
             id="tspan126"
             y="-128.625"
             x="-9 -3.4400001 -0.66000003">2.5</tspan><tspan
             id="tspan128"
             y="-171.5"
             x="0">3</tspan><tspan
             id="tspan130"
             y="-214.375"
             x="-9 -3.4400001 -0.66000003">3.5</tspan><tspan
             id="tspan132"
             y="-257.25"
             x="0">4</tspan><tspan
             id="tspan134"
             y="-300.125"
             x="-9 -3.4400001 -0.66000003">4.5</tspan><tspan
             id="tspan136"
             y="-343"
             x="0">5</tspan></text>
<text
           id="text142"
           style="font-variant:normal;font-weight:normal;font-size:11px;font-family:Helvetica;-inkscape-font-specification:Helvetica;writing-mode:lr-tb;fill:#262626;fill-opacity:1;fill-rule:nonzero;stroke:none"
           transform="matrix(0,1,1,0,9,155)"><tspan
             id="tspan140"
             y="0"
             x="0 7.3369999 13.453 17.115999 23.232 25.674 28.115999 34.231998 36.674 39.731998 47.069 53.185001 59.300999 65.417 71.532997 77.649002">Parallel Speedup</tspan></text>
</g><g
         transform="scale(10)"
         id="g144"><text
           id="text148"
           style="font-variant:normal;font-weight:bold;font-size:11px;font-family:Helvetica;-inkscape-font-specification:Helvetica-Bold;writing-mode:lr-tb;fill:#000000;fill-opacity:1;fill-rule:nonzero;stroke:none"
           transform="matrix(1,0,0,-1,165,378.75)"><tspan
             id="tspan146"
             y="0"
             x="0 3.0580001 6.1160002 9.1739998 15.895 22.011 25.674 29.952999 36.069 39.731998 42.790001 49.511002 56.231998 59.290001 66.011002 69.674004 72.732002 80.674004 90.453003 97.174004 103.29 110.011 113.069 115.687 121.803 124.861 131.582 137.698">Illustration of Amdahl's Law</tspan></text>
</g><path
         id="path150"
         style="fill:none;stroke:#0072bd;stroke-width:5;stroke-linecap:butt;stroke-linejoin:round;stroke-miterlimit:10;stroke-dasharray:none;stroke-opacity:1"
         d="m 393.398,300 43.403,559.242 43.398,393.538 43.403,291.98 L 567,1770 l 43.398,179.04 43.403,145.73 43.398,120.92 43.403,101.96 43.398,87.12 43.398,75.31 43.403,65.75 43.398,57.9 43.403,51.38 43.398,45.89 43.4,41.25 43.4,37.27 43.4,33.84 43.4,30.87 43.4,28.27 43.4,25.98 43.4,23.97 43.4,22.18 43.4,20.57 43.4,19.15 43.4,17.86 43.4,16.69 43.4,15.65 43.4,14.69 43.4,13.82 43.4,13.02 43.4,12.29 43.4,11.63 43.4,11.01 43.4,10.44 43.4,9.92 43.4,9.43 43.4,8.98 43.4,8.55 43.4,8.17 43.4,7.8 43.4,7.46 43.4,7.14 43.4,6.85 43.4,6.56 43.4,6.3 43.4,6.05 43.4,5.81 43.4,5.6 43.4,5.38 43.4,5.19 43.4,5.01 43.4,4.83 43.4,4.66 43.4,4.5 43.4,4.35 43.4,4.21 43.4,4.07 43.4,3.94 43.4,3.82 43.4,3.7 43.4,3.59 43.4,3.48 43.4,3.38 43.4,3.27 43.4,3.19 43.4,3.1 43.4,3 43.4,2.93 43.4,2.85 43.4,2.77 43.4,2.7 43.4,2.62 43.4,2.56 43.4,2.5 43.4,2.43 43.4,2.37 43.4,2.31 43.4,2.26 43.4,2.21 43.4,2.15 43.4,2.1 43.4,2.05 43.4,2.01 43.4,1.96 43.4,1.92 43.4,1.87 43.4,1.84 43.4,1.79 43.4,1.76 43.4,1.72 43.4,1.68 43.4,1.65 43.4,1.62 43.4,1.58 43.4,1.55 43.4,1.52 43.4,1.49 43.4,1.46 43.4,1.43" /><path
         id="path152"
         style="fill:none;stroke:#d95319;stroke-width:5;stroke-linecap:butt;stroke-linejoin:round;stroke-miterlimit:10;stroke-dasharray:none;stroke-opacity:1"
         d="M 393.398,3515.62 H 4690" /><path
         id="path154"
         style="fill:#ffffff;fill-opacity:1;fill-rule:nonzero;stroke:none"
         d="M 3330,400 H 4590 V 690 H 3330 Z" /><g
         transform="scale(10)"
         id="g156"><text
           id="text160"
           style="font-variant:normal;font-weight:normal;font-size:9px;font-family:Helvetica;-inkscape-font-specification:Helvetica;writing-mode:lr-tb;fill:#000000;fill-opacity:1;fill-rule:nonzero;stroke:none"
           transform="matrix(1,0,0,-1,370,57.8598)"><tspan
             id="tspan158"
             y="0"
             x="0 5.0040002 8.0010004 13.005 15.003 20.007 24.507 27.009001 32.013 37.016998 39.519001 44.019001 49.022999 54.027 59.030998 64.035004 69.039001">projected speedup</tspan></text>
</g><path
         id="path162"
         style="fill:none;stroke:#0072bd;stroke-width:5;stroke-linecap:butt;stroke-linejoin:round;stroke-miterlimit:10;stroke-dasharray:none;stroke-opacity:1"
         d="m 3370,608.602 h 300" /><g
         transform="scale(10)"
         id="g164"><text
           id="text168"
           style="font-variant:normal;font-weight:normal;font-size:9px;font-family:Helvetica;-inkscape-font-specification:Helvetica;writing-mode:lr-tb;fill:#000000;fill-opacity:1;fill-rule:nonzero;stroke:none"
           transform="matrix(1,0,0,-1,370,45.1402)"><tspan
             id="tspan166"
             y="0"
             x="0 4.5 9.5039997 14.508 19.511999 24.516001 29.52 34.523998 37.026001 39.023998 41.021999 48.519001 50.516998">speedup limit</tspan></text>
</g><path
         id="path170"
         style="fill:none;stroke:#d95319;stroke-width:5;stroke-linecap:butt;stroke-linejoin:round;stroke-miterlimit:10;stroke-dasharray:none;stroke-opacity:1"
         d="m 3370,481.398 h 300" /><path
         id="path172"
         style="fill:none;stroke:#262626;stroke-width:5;stroke-linecap:butt;stroke-linejoin:miter;stroke-miterlimit:10;stroke-dasharray:none;stroke-opacity:1"
         d="M 3330,400 H 4590 V 690 H 3330 Z" /></g></g></svg>